<?xml version="1.0" standalone="no"?><!DOCTYPE svg PUBLIC "-//W3C//DTD SVG 1.1//EN" "http://www.w3.org/Graphics/SVG/1.1/DTD/svg11.dtd"><svg t="1484383311444" class="icon" style="" viewBox="0 0 1024 1024" version="1.1" xmlns="http://www.w3.org/2000/svg" p-id="3895" xmlns:xlink="http://www.w3.org/1999/xlink" width="200" height="200"><defs><style type="text/css"></style></defs><path d="M388 972.992q-50.016 0-91.008-24-39.008-22.016-71.008-71.008-0.992-2.016-2.016-3.488t-2.016-3.488-2.016-3.008q-22.016-40 0.992-96.512t82.016-102.496q68-54.016 131.008-54.016 46.016 0 68.992 31.008 7.008 4.992 12 4.992 4 0 8-4 0-0.992 0.992-0.992 32.992-44 60.992-92.992 12.992-22.016 24-44.992t20-47.008q3.008-12 0-16l-3.008-2.016q-34.016 0-56.992-28-22.016-26.016-31.008-68t-3.008-92q10.016-76 47.008-127.008t83.008-51.008l2.016 0 8 0.992q28-0.992 53.504 4.512t48.512 18.496q68 39.008 92.992 127.488t2.016 204.512-88.992 232.992q-78.016 138.016-186.496 222.496t-208.512 84.512zM434.016 666.016q-44.992 0-100 42.016-42.016 34.016-62.016 73.504t-10.016 59.488l4 8 0.992 0q22.016 38.016 55.008 56.992 28.992 16 66.016 16 84.992 0 183.008-78.496t168-202.496q58.016-100.992 80-204.512t4.512-182.016-71.488-109.504q-34.016-19.008-76.992-16-2.016 0-3.488-0.512t-2.496-0.512l-4 0q-23.008 0-47.488 39.008t-32.512 94.016q-4 38.016 1.504 71.008t20.512 50.016q8.992 11.008 19.008 11.008 26.016 0 42.016 20 8.992 12 11.488 27.008t-1.504 32.992l-0.992 4.992q-10.016 24.992-22.016 50.496t-26.016 49.504q-30.016 52.992-67.008 100.992l-4 4q-18.016 18.016-43.008 18.016-11.008 0-23.008-4.512t-16.512-8-7.488-5.504q-2.016-0.992-3.008-2.496t-2.016-3.488q-3.008-4-8-7.008t-10.016-3.488-11.008-0.512zM355.008 496q-8.992 0-16.512-6.016t-8.512-15.008q-3.008-16.992 0.512-34.016t13.504-32q20.992-30.016 56.992-36.992 10.016-2.016 18.496 4t10.496 16.992q0.992 4 0.512 8t-2.496 7.488-4.512 6.496-6.016 4.992-7.488 2.016q-3.008 0.992-4.992 1.504t-4.512 1.504-4.512 2.496-4 2.496l-3.008 4q-2.016 2.016-3.008 4-8.992 12.992-6.016 28 2.016 10.016-4 19.008t-16.992 11.008l-4 0zM268.992 494.016q-4.992 0-8.992-1.504t-7.488-4-5.504-6.496-3.008-8.992q-12-63.008 24.512-116t100.512-64q3.008-0.992 5.504-0.992t5.504 0.992 5.504 2.496 4.512 3.008 4 3.488l2.016 6.016q2.016 2.016 2.016 4.992 2.016 10.016-4 19.008t-16 11.008q-43.008 7.008-67.488 43.008t-16.512 78.016q0.992 4 0.512 8t-2.496 7.488-4.512 6.496-6.016 4.992-8.512 3.008l-4 0zM170.016 522.016q-4.992 0-10.496-2.496t-8.992-7.488-4.512-11.008q-20-108.992 42.496-199.488t171.488-110.496q10.016-2.016 18.496 4t10.496 16q0.992 7.008-0.992 13.504t-7.008 11.008-12 5.504q-14.016 2.016-27.488 6.496t-26.496 10.496-24.512 13.504-22.496 16.992-20.512 20-17.504 21.504q-51.008 74.016-34.016 162.016 0.992 10.016-4.992 19.008t-16 11.008l-4.992 0z" p-id="3896"></path></svg>